<?xml version="1.0" encoding="UTF-8" standalone="no"?>
<!DOCTYPE svg PUBLIC "-//W3C//DTD SVG 1.1//EN" "http://www.w3.org/Graphics/SVG/1.1/DTD/svg11.dtd">
<svg width="100%" height="100%" viewBox="0 0 1634 930" version="1.1" xmlns="http://www.w3.org/2000/svg" xmlns:xlink="http://www.w3.org/1999/xlink" xml:space="preserve" xmlns:serif="http://www.serif.com/" style="fill-rule:evenodd;clip-rule:evenodd;stroke-linejoin:round;stroke-miterlimit:2;">
    <path d="M7.307,929.008L6.333,930L0,930L0,922.16L7.307,929.008ZM19.022,930L31.873,917.873L40.719,926.595L63.422,926.595L67.938,922.079L67.938,910.016L63.422,905.439L34.904,905.439L20.985,891.52L20.985,866.961L34.904,852.981L74.804,852.981L85.939,864.672L72.268,877.106L64.04,868.693L45.544,868.693L40.966,873.271L40.966,885.21L45.544,889.726L74.062,889.726L87.981,903.707L87.981,928.389L86.37,930L19.022,930ZM129.592,930L127.981,928.389L127.981,853.661L147.962,853.661L147.962,920.904L153.158,926.1L171.531,926.1L176.727,920.904L176.727,853.661L194.233,853.661L194.233,928.389L192.615,930L129.592,930ZM218.649,930L237.915,896.469L214.84,853.661L238.162,853.661L248.678,874.818L250.843,882.55L251.462,882.55L253.751,874.818L263.339,853.661L284.001,853.661L261.112,896.469L279.598,930L256.318,930L250.967,920.038L247.936,911.439L247.256,911.439L244.348,920.038L239.168,930L218.649,930ZM304.741,930L303.123,928.389L303.123,866.961L317.104,852.981L358.612,852.981L372.593,866.961L372.593,928.389L370.975,930L304.741,930ZM399.819,930L399.819,853.661L426.172,853.661L446.833,903.583L449.122,915.089L450.112,915.089L450.112,853.661L467.618,853.661L467.618,930L436.416,930L420.604,891.891L418.315,880.261L417.264,880.261L417.264,930L399.819,930ZM530.917,930L530.917,853.661L585.911,853.661L599.83,867.58L599.83,927.77L597.6,930L530.917,930ZM642.397,930L642.397,911.439L615.673,853.661L638.562,853.661L652.666,886.695L654.893,896.469L655.574,896.469L657.986,886.695L672.029,853.661L691.143,853.661L664.543,911.439L664.543,930L642.397,930ZM708.224,930L708.224,853.661L734.577,853.661L755.239,903.583L757.528,915.089L758.517,915.089L758.517,853.661L776.024,853.661L776.024,930L744.821,930L729.01,891.891L726.721,880.261L725.669,880.261L725.669,930L708.224,930ZM865.769,930L844.249,930L842.47,923.44L818.406,923.44L816.627,930L797.677,930L819.458,853.661L842.593,853.661L865.769,930ZM887.697,930L887.697,853.661L915.411,853.661L930.134,904.944L932.918,917.502L933.66,917.502L936.196,904.944L951.043,853.661L978.509,853.661L978.509,930L958.528,930L958.528,881.251L957.6,881.251L955.311,894.304L944.453,930L919.869,930L908.359,894.304L906.07,881.251L905.142,881.251L905.142,930L887.697,930ZM1003.2,930L1003.2,925.482L1016.13,925.482L1016.13,869.869L1003.2,869.869L1003.2,853.661L1049.22,853.661L1049.22,869.869L1036.17,869.869L1036.17,925.482L1049.22,925.482L1049.22,930L1003.2,930ZM1074.23,930L1072.61,928.389L1072.61,866.961L1086.6,852.981L1127.36,852.981L1139.05,865.044L1124.82,877.973L1116.1,869.25L1097.85,869.25L1092.66,874.446L1092.66,920.904L1097.85,926.1L1117.22,926.1L1127.36,916.079L1141.16,929.008L1140.18,930L1074.23,930ZM1152.87,930L1165.72,917.873L1174.57,926.595L1197.27,926.595L1201.79,922.079L1201.79,910.016L1197.27,905.439L1168.75,905.439L1154.83,891.52L1154.83,866.961L1168.75,852.981L1208.65,852.981L1219.79,864.672L1206.12,877.106L1197.89,868.693L1179.39,868.693L1174.82,873.271L1174.82,885.21L1179.39,889.726L1207.91,889.726L1221.83,903.707L1221.83,928.389L1220.22,930L1152.87,930ZM1263.44,930L1261.83,928.389L1261.83,853.661L1281.81,853.661L1281.81,920.904L1287.01,926.1L1305.38,926.1L1310.58,920.904L1310.58,853.661L1328.08,853.661L1328.08,928.389L1326.46,930L1263.44,930ZM1352.5,930L1371.76,896.469L1348.69,853.661L1372.01,853.661L1382.53,874.818L1384.69,882.55L1385.31,882.55L1387.6,874.818L1397.19,853.661L1417.85,853.661L1394.96,896.469L1413.45,930L1390.17,930L1384.82,920.038L1381.79,911.439L1381.1,911.439L1378.2,920.038L1373.02,930L1352.5,930ZM1438.59,930L1436.97,928.389L1436.97,866.961L1450.95,852.981L1492.46,852.981L1506.44,866.961L1506.44,928.389L1504.82,930L1438.59,930ZM1533.67,930L1533.67,853.661L1560.02,853.661L1580.68,903.583L1582.97,915.089L1583.96,915.089L1583.96,853.661L1601.47,853.661L1601.47,930L1570.27,930L1554.45,891.891L1552.16,880.261L1551.11,880.261L1551.11,930L1533.67,930ZM1486.4,920.904L1486.4,874.446L1481.2,869.25L1462.21,869.25L1457.02,874.446L1457.02,920.904L1462.21,926.1L1481.2,926.1L1486.4,920.904ZM352.55,920.904L352.55,874.446L347.354,869.25L328.362,869.25L323.166,874.446L323.166,920.904L328.362,926.1L347.354,926.1L352.55,920.904ZM574.59,925.482L579.787,920.285L579.787,875.065L574.59,869.869L550.898,869.869L550.898,925.482L574.59,925.482ZM830.098,873.395L828.18,883.787L821.561,907.728L839.439,907.728L832.881,883.787L831.087,873.395L830.098,873.395ZM5.203,865.044L0,869.772L0,859.675L5.203,865.044ZM904.028,816.618L890.048,802.699L890.048,741.271L904.028,727.291L945.537,727.291L959.517,741.271L959.517,802.699L945.537,816.618L904.028,816.618ZM714.905,802.699L714.905,727.971L734.886,727.971L734.886,795.214L740.082,800.41L758.455,800.41L763.651,795.214L763.651,727.971L781.158,727.971L781.158,802.699L767.177,816.618L728.824,816.618L714.905,802.699ZM1456.24,815.999L1434.34,815.999L1429.39,797.75L1405.33,797.75L1400.38,815.999L1381.27,815.999L1406.38,727.971L1429.52,727.971L1456.24,815.999ZM1117.84,815.999L1117.84,727.971L1172.84,727.971L1186.75,741.89L1186.75,802.08L1172.84,815.999L1117.84,815.999ZM1634,727.971L1634,744.179L1623.1,744.179L1623.1,799.792L1634,799.792L1634,815.999L1590.12,815.999L1590.12,799.792L1603.05,799.792L1603.05,744.179L1590.12,744.179L1590.12,727.971L1634,727.971ZM1054.54,727.971L1054.54,815.999L1028.19,815.999L1007.53,766.201L1005.24,754.571L1004.19,754.571L1004.19,815.999L986.743,815.999L986.743,727.971L1013.1,727.971L1033.76,777.893L1036.05,789.399L1037.04,789.399L1037.04,727.971L1054.54,727.971ZM1474.62,815.999L1474.62,727.971L1502.34,727.971L1517.06,779.254L1519.84,791.812L1520.58,791.812L1523.12,779.254L1537.97,727.971L1565.43,727.971L1565.43,815.999L1545.45,815.999L1545.45,755.561L1544.52,755.561L1542.24,768.614L1527.82,815.999L1510.56,815.999L1495.28,768.614L1492.99,755.561L1492.07,755.561L1492.07,815.999L1474.62,815.999ZM1362.95,727.971L1362.95,815.999L1336.6,815.999L1315.93,766.201L1313.64,754.571L1312.59,754.571L1312.59,815.999L1295.15,815.999L1295.15,727.971L1321.5,727.971L1342.16,777.893L1344.45,789.399L1345.44,789.399L1345.44,727.971L1362.95,727.971ZM1202.6,727.971L1225.49,727.971L1239.59,761.005L1241.82,770.779L1242.5,770.779L1244.91,761.005L1258.95,727.971L1278.07,727.971L1251.47,785.749L1251.47,815.999L1229.32,815.999L1229.32,785.749L1202.6,727.971ZM820.014,815.999L798.858,815.999L824.839,770.779L801.765,727.971L825.086,727.971L835.603,749.128L837.768,756.86L838.387,756.86L840.675,749.128L850.264,727.971L870.925,727.971L848.037,770.779L872.967,815.999L849.521,815.999L837.892,794.348L834.86,785.749L834.18,785.749L831.273,794.348L820.014,815.999ZM541.179,812.981L499.67,812.981L485.69,799.062L485.69,737.634L499.67,723.654L540.436,723.654L552.128,735.717L537.9,748.646L529.178,739.923L510.929,739.923L505.732,745.12L505.732,791.577L510.929,796.773L530.291,796.773L540.436,786.752L554.231,799.681L541.179,812.981ZM619.192,747.78L610.965,739.366L592.469,739.366L587.891,743.944L587.891,755.883L592.469,760.399L620.986,760.399L634.905,774.38L634.905,799.062L620.986,812.981L577.375,812.981L565.621,800.98L578.797,788.546L587.643,797.268L610.346,797.268L614.862,792.752L614.862,780.689L610.346,776.112L581.829,776.112L567.91,762.193L567.91,737.634L581.829,723.654L621.729,723.654L632.864,735.346L619.192,747.78ZM189.099,724.334L189.099,812.362L162.747,812.362L142.085,762.564L139.796,750.934L138.745,750.934L138.745,812.362L121.3,812.362L121.3,724.334L147.653,724.334L168.314,774.256L170.603,785.762L171.593,785.762L171.593,724.334L189.099,724.334ZM282.393,812.362L260.494,812.362L255.545,794.113L231.481,794.113L226.533,812.362L207.418,812.362L232.533,724.334L255.669,724.334L282.393,812.362ZM28.749,724.334L51.637,724.334L65.742,757.368L67.969,767.142L68.649,767.142L71.062,757.368L85.104,724.334L104.219,724.334L77.619,782.112L77.619,812.362L55.473,812.362L55.473,782.112L28.749,724.334ZM300.773,812.362L300.773,724.334L328.486,724.334L343.209,775.617L345.993,788.175L346.735,788.175L349.272,775.617L364.118,724.334L391.584,724.334L391.584,812.362L371.603,812.362L371.603,751.924L370.676,751.924L368.387,764.977L353.973,812.362L336.714,812.362L321.434,764.977L319.146,751.924L318.218,751.924L318.218,812.362L300.773,812.362ZM462.299,812.362L416.274,812.362L416.274,796.155L429.203,796.155L429.203,740.542L416.274,740.542L416.274,724.334L462.299,724.334L462.299,740.542L449.246,740.542L449.246,796.155L462.299,796.155L462.299,812.362ZM0,725.348L12.905,738.253L12.905,798.443L0,811.349L0,725.348ZM939.474,795.214L939.474,748.756L934.278,743.56L915.287,743.56L910.091,748.756L910.091,795.214L915.287,800.41L934.278,800.41L939.474,795.214ZM1161.52,799.792L1166.71,794.595L1166.71,749.375L1161.52,744.179L1137.82,744.179L1137.82,799.792L1161.52,799.792ZM1417.02,747.705L1415.1,758.097L1408.49,782.038L1426.36,782.038L1419.81,758.097L1418.01,747.705L1417.02,747.705ZM243.173,744.068L241.255,754.46L234.636,778.401L252.514,778.401L245.957,754.46L244.163,744.068L243.173,744.068ZM1261.83,673.372L1261.83,598.644L1281.81,598.644L1281.81,665.887L1287.01,671.083L1305.38,671.083L1310.58,665.887L1310.58,598.644L1328.08,598.644L1328.08,673.372L1314.1,687.291L1275.75,687.291L1261.83,673.372ZM1206.12,622.09L1197.89,613.677L1179.39,613.677L1174.82,618.254L1174.82,630.193L1179.39,634.709L1207.91,634.709L1221.83,648.69L1221.83,673.372L1207.91,687.291L1164.3,687.291L1152.55,675.29L1165.72,662.856L1174.57,671.578L1197.27,671.578L1201.79,667.062L1201.79,655L1197.27,650.422L1168.75,650.422L1154.83,636.503L1154.83,611.944L1168.75,597.964L1208.65,597.964L1219.79,609.656L1206.12,622.09ZM317.104,687.291L303.123,673.372L303.123,611.944L317.104,597.964L358.612,597.964L372.593,611.944L372.593,673.372L358.612,687.291L317.104,687.291ZM72.268,622.09L64.04,613.677L45.544,613.677L40.966,618.254L40.966,630.193L45.544,634.709L74.062,634.709L87.981,648.69L87.981,673.372L74.062,687.291L30.45,687.291L18.697,675.29L31.873,662.856L40.719,671.578L63.422,671.578L67.938,667.062L67.938,655L63.422,650.422L34.904,650.422L20.985,636.503L20.985,611.944L34.904,597.964L74.804,597.964L85.939,609.656L72.268,622.09ZM127.981,673.372L127.981,598.644L147.962,598.644L147.962,665.887L153.158,671.083L171.531,671.083L176.727,665.887L176.727,598.644L194.233,598.644L194.233,673.372L180.253,687.291L141.899,687.291L127.981,673.372ZM1128.1,687.291L1086.6,687.291L1072.61,673.372L1072.61,611.944L1086.6,597.964L1127.36,597.964L1139.05,610.027L1124.82,622.956L1116.1,614.233L1097.85,614.233L1092.66,619.43L1092.66,665.887L1097.85,671.083L1117.22,671.083L1127.36,661.062L1141.16,673.991L1128.1,687.291ZM1450.95,687.291L1436.97,673.372L1436.97,611.944L1450.95,597.964L1492.46,597.964L1506.44,611.944L1506.44,673.372L1492.46,687.291L1450.95,687.291ZM530.917,686.672L530.917,598.644L585.911,598.644L599.83,612.563L599.83,672.754L585.911,686.672L530.917,686.672ZM1601.47,598.644L1601.47,686.672L1575.12,686.672L1554.45,636.874L1552.16,625.244L1551.11,625.244L1551.11,686.672L1533.67,686.672L1533.67,598.644L1560.02,598.644L1580.68,648.566L1582.97,660.072L1583.96,660.072L1583.96,598.644L1601.47,598.644ZM776.024,598.644L776.024,686.672L749.671,686.672L729.01,636.874L726.721,625.244L725.669,625.244L725.669,686.672L708.224,686.672L708.224,598.644L734.577,598.644L755.239,648.566L757.528,660.072L758.517,660.072L758.517,598.644L776.024,598.644ZM869.317,686.672L847.419,686.672L842.47,668.423L818.406,668.423L813.457,686.672L794.342,686.672L819.458,598.644L842.593,598.644L869.317,686.672ZM887.697,686.672L887.697,598.644L915.411,598.644L930.134,649.927L932.918,662.485L933.66,662.485L936.196,649.927L951.043,598.644L978.509,598.644L978.509,686.672L958.528,686.672L958.528,626.234L957.6,626.234L955.311,639.287L940.898,686.672L923.638,686.672L908.359,639.287L906.07,626.234L905.142,626.234L905.142,686.672L887.697,686.672ZM615.673,598.644L638.562,598.644L652.666,631.678L654.893,641.452L655.574,641.452L657.986,631.678L672.029,598.644L691.143,598.644L664.543,656.422L664.543,686.672L642.397,686.672L642.397,656.422L615.673,598.644ZM467.618,598.644L467.618,686.672L441.266,686.672L420.604,636.874L418.315,625.244L417.264,625.244L417.264,686.672L399.819,686.672L399.819,598.644L426.172,598.644L446.833,648.566L449.122,660.072L450.112,660.072L450.112,598.644L467.618,598.644ZM1366.94,686.672L1345.78,686.672L1371.76,641.452L1348.69,598.644L1372.01,598.644L1382.53,619.801L1384.69,627.533L1385.31,627.533L1387.6,619.801L1397.19,598.644L1417.85,598.644L1394.96,641.452L1419.89,686.672L1396.45,686.672L1384.82,665.021L1381.79,656.422L1381.1,656.422L1378.2,665.021L1366.94,686.672ZM233.089,686.672L211.933,686.672L237.915,641.452L214.84,598.644L238.162,598.644L248.678,619.801L250.843,627.533L251.462,627.533L253.751,619.801L263.339,598.644L284.001,598.644L261.112,641.452L286.042,686.672L262.597,686.672L250.967,665.021L247.936,656.422L247.256,656.422L244.348,665.021L233.089,686.672ZM1049.22,686.672L1003.2,686.672L1003.2,670.465L1016.13,670.465L1016.13,614.852L1003.2,614.852L1003.2,598.644L1049.22,598.644L1049.22,614.852L1036.17,614.852L1036.17,670.465L1049.22,670.465L1049.22,686.672ZM7.307,673.991L0,681.436L0,667.143L7.307,673.991ZM1486.4,665.887L1486.4,619.43L1481.2,614.233L1462.21,614.233L1457.02,619.43L1457.02,665.887L1462.21,671.083L1481.2,671.083L1486.4,665.887ZM352.55,665.887L352.55,619.43L347.354,614.233L328.362,614.233L323.166,619.43L323.166,665.887L328.362,671.083L347.354,671.083L352.55,665.887ZM574.59,670.465L579.787,665.268L579.787,620.048L574.59,614.852L550.898,614.852L550.898,670.465L574.59,670.465ZM830.098,618.378L828.18,628.771L821.561,652.711L839.439,652.711L832.881,628.771L831.087,618.378L830.098,618.378ZM5.203,610.027L0,614.755L0,604.658L5.203,610.027ZM904.028,557.964L890.048,544.045L890.048,482.618L904.028,468.637L945.537,468.637L959.517,482.618L959.517,544.045L945.537,557.964L904.028,557.964ZM714.905,544.045L714.905,469.317L734.886,469.317L734.886,536.56L740.082,541.756L758.455,541.756L763.651,536.56L763.651,469.317L781.158,469.317L781.158,544.045L767.177,557.964L728.824,557.964L714.905,544.045ZM1054.54,469.317L1054.54,557.345L1028.19,557.345L1007.53,507.547L1005.24,495.918L1004.19,495.918L1004.19,557.345L986.743,557.345L986.743,469.317L1013.1,469.317L1033.76,519.239L1036.05,530.745L1037.04,530.745L1037.04,469.317L1054.54,469.317ZM1456.24,557.345L1434.34,557.345L1429.39,539.096L1405.33,539.096L1400.38,557.345L1381.27,557.345L1406.38,469.317L1429.52,469.317L1456.24,557.345ZM820.014,557.345L798.858,557.345L824.839,512.125L801.765,469.317L825.086,469.317L835.603,490.474L837.768,498.206L838.387,498.206L840.675,490.474L850.264,469.317L870.925,469.317L848.037,512.125L872.967,557.345L849.521,557.345L837.892,535.694L834.86,527.095L834.18,527.095L831.273,535.694L820.014,557.345ZM1474.62,557.345L1474.62,469.317L1502.34,469.317L1517.06,520.6L1519.84,533.158L1520.58,533.158L1523.12,520.6L1537.97,469.317L1565.43,469.317L1565.43,557.345L1545.45,557.345L1545.45,496.907L1544.52,496.907L1542.24,509.96L1527.82,557.345L1510.56,557.345L1495.28,509.96L1492.99,496.907L1492.07,496.907L1492.07,557.345L1474.62,557.345ZM1117.84,557.345L1117.84,469.317L1172.84,469.317L1186.75,483.236L1186.75,543.427L1172.84,557.345L1117.84,557.345ZM1202.6,469.317L1225.49,469.317L1239.59,502.351L1241.82,512.125L1242.5,512.125L1244.91,502.351L1258.95,469.317L1278.07,469.317L1251.47,527.095L1251.47,557.345L1229.32,557.345L1229.32,527.095L1202.6,469.317ZM1634,469.317L1634,485.525L1623.1,485.525L1623.1,541.138L1634,541.138L1634,557.345L1590.12,557.345L1590.12,541.138L1603.05,541.138L1603.05,485.525L1590.12,485.525L1590.12,469.317L1634,469.317ZM1362.95,469.317L1362.95,557.345L1336.6,557.345L1315.93,507.547L1313.64,495.918L1312.59,495.918L1312.59,557.345L1295.15,557.345L1295.15,469.317L1321.5,469.317L1342.16,519.239L1344.45,530.745L1345.44,530.745L1345.44,469.317L1362.95,469.317ZM541.179,554.327L499.67,554.327L485.69,540.408L485.69,478.981L499.67,465L540.436,465L552.128,477.063L537.9,489.992L529.178,481.269L510.929,481.269L505.732,486.466L505.732,532.923L510.929,538.119L530.291,538.119L540.436,528.098L554.231,541.027L541.179,554.327ZM619.192,489.126L610.965,480.713L592.469,480.713L587.891,485.29L587.891,497.229L592.469,501.745L620.986,501.745L634.905,515.726L634.905,540.408L620.986,554.327L577.375,554.327L565.621,542.326L578.797,529.892L587.643,538.614L610.346,538.614L614.862,534.098L614.862,522.036L610.346,517.458L581.829,517.458L567.91,503.539L567.91,478.981L581.829,465L621.729,465L632.864,476.692L619.192,489.126ZM282.393,553.708L260.494,553.708L255.545,535.459L231.481,535.459L226.533,553.708L207.418,553.708L232.533,465.68L255.669,465.68L282.393,553.708ZM300.773,553.708L300.773,465.68L328.486,465.68L343.209,516.963L345.993,529.521L346.735,529.521L349.272,516.963L364.118,465.68L391.584,465.68L391.584,553.708L371.603,553.708L371.603,493.27L370.676,493.27L368.387,506.323L353.973,553.708L336.714,553.708L321.434,506.323L319.146,493.27L318.218,493.27L318.218,553.708L300.773,553.708ZM189.099,465.68L189.099,553.708L162.747,553.708L142.085,503.91L139.796,492.281L138.745,492.281L138.745,553.708L121.3,553.708L121.3,465.68L147.653,465.68L168.314,515.602L170.603,527.108L171.593,527.108L171.593,465.68L189.099,465.68ZM462.299,553.708L416.274,553.708L416.274,537.501L429.203,537.501L429.203,481.888L416.274,481.888L416.274,465.68L462.299,465.68L462.299,481.888L449.246,481.888L449.246,537.501L462.299,537.501L462.299,553.708ZM28.749,465.68L51.637,465.68L65.742,498.714L67.969,508.488L68.649,508.488L71.062,498.714L85.104,465.68L104.219,465.68L77.619,523.458L77.619,553.708L55.473,553.708L55.473,523.458L28.749,465.68ZM0,466.694L12.905,479.599L12.905,539.79L0,552.695L0,466.694ZM939.474,536.56L939.474,490.103L934.278,484.906L915.287,484.906L910.091,490.103L910.091,536.56L915.287,541.756L934.278,541.756L939.474,536.56ZM1161.52,541.138L1166.71,535.941L1166.71,490.721L1161.52,485.525L1137.82,485.525L1137.82,541.138L1161.52,541.138ZM1417.02,489.051L1415.1,499.444L1408.49,523.384L1426.36,523.384L1419.81,499.444L1418.01,489.051L1417.02,489.051ZM243.173,485.414L241.255,495.807L234.636,519.747L252.514,519.747L245.957,495.807L244.163,485.414L243.173,485.414ZM127.981,414.718L127.981,339.991L147.962,339.991L147.962,407.233L153.158,412.429L171.531,412.429L176.727,407.233L176.727,339.991L194.233,339.991L194.233,414.718L180.253,428.637L141.899,428.637L127.981,414.718ZM317.104,428.637L303.123,414.718L303.123,353.291L317.104,339.31L358.612,339.31L372.593,353.291L372.593,414.718L358.612,428.637L317.104,428.637ZM1261.83,414.718L1261.83,339.991L1281.81,339.991L1281.81,407.233L1287.01,412.429L1305.38,412.429L1310.58,407.233L1310.58,339.991L1328.08,339.991L1328.08,414.718L1314.1,428.637L1275.75,428.637L1261.83,414.718ZM72.268,363.436L64.04,355.023L45.544,355.023L40.966,359.6L40.966,371.54L45.544,376.055L74.062,376.055L87.981,390.036L87.981,414.718L74.062,428.637L30.45,428.637L18.697,416.636L31.873,404.202L40.719,412.924L63.422,412.924L67.938,408.409L67.938,396.346L63.422,391.768L34.904,391.768L20.985,377.849L20.985,353.291L34.904,339.31L74.804,339.31L85.939,351.002L72.268,363.436ZM1128.1,428.637L1086.6,428.637L1072.61,414.718L1072.61,353.291L1086.6,339.31L1127.36,339.31L1139.05,351.373L1124.82,364.302L1116.1,355.579L1097.85,355.579L1092.66,360.776L1092.66,407.233L1097.85,412.429L1117.22,412.429L1127.36,402.408L1141.16,415.337L1128.1,428.637ZM1206.12,363.436L1197.89,355.023L1179.39,355.023L1174.82,359.6L1174.82,371.54L1179.39,376.055L1207.91,376.055L1221.83,390.036L1221.83,414.718L1207.91,428.637L1164.3,428.637L1152.55,416.636L1165.72,404.202L1174.57,412.924L1197.27,412.924L1201.79,408.409L1201.79,396.346L1197.27,391.768L1168.75,391.768L1154.83,377.849L1154.83,353.291L1168.75,339.31L1208.65,339.31L1219.79,351.002L1206.12,363.436ZM1450.95,428.637L1436.97,414.718L1436.97,353.291L1450.95,339.31L1492.46,339.31L1506.44,353.291L1506.44,414.718L1492.46,428.637L1450.95,428.637ZM1366.94,428.018L1345.78,428.018L1371.76,382.798L1348.69,339.991L1372.01,339.991L1382.53,361.147L1384.69,368.879L1385.31,368.879L1387.6,361.147L1397.19,339.991L1417.85,339.991L1394.96,382.798L1419.89,428.018L1396.45,428.018L1384.82,406.367L1381.79,397.768L1381.1,397.768L1378.2,406.367L1366.94,428.018ZM1049.22,428.018L1003.2,428.018L1003.2,411.811L1016.13,411.811L1016.13,356.198L1003.2,356.198L1003.2,339.991L1049.22,339.991L1049.22,356.198L1036.17,356.198L1036.17,411.811L1049.22,411.811L1049.22,428.018ZM467.618,339.991L467.618,428.018L441.266,428.018L420.604,378.22L418.315,366.591L417.264,366.591L417.264,428.018L399.819,428.018L399.819,339.991L426.172,339.991L446.833,389.912L449.122,401.418L450.112,401.418L450.112,339.991L467.618,339.991ZM233.089,428.018L211.933,428.018L237.915,382.798L214.84,339.991L238.162,339.991L248.678,361.147L250.843,368.879L251.462,368.879L253.751,361.147L263.339,339.991L284.001,339.991L261.112,382.798L286.042,428.018L262.597,428.018L250.967,406.367L247.936,397.768L247.256,397.768L244.348,406.367L233.089,428.018ZM615.673,339.991L638.562,339.991L652.666,373.024L654.893,382.798L655.574,382.798L657.986,373.024L672.029,339.991L691.143,339.991L664.543,397.768L664.543,428.018L642.397,428.018L642.397,397.768L615.673,339.991ZM887.697,428.018L887.697,339.991L915.411,339.991L930.134,391.273L932.918,403.831L933.66,403.831L936.196,391.273L951.043,339.991L978.509,339.991L978.509,428.018L958.528,428.018L958.528,367.58L957.6,367.58L955.311,380.633L940.898,428.018L923.638,428.018L908.359,380.633L906.07,367.58L905.142,367.58L905.142,428.018L887.697,428.018ZM1601.47,339.991L1601.47,428.018L1575.12,428.018L1554.45,378.22L1552.16,366.591L1551.11,366.591L1551.11,428.018L1533.67,428.018L1533.67,339.991L1560.02,339.991L1580.68,389.912L1582.97,401.418L1583.96,401.418L1583.96,339.991L1601.47,339.991ZM776.024,339.991L776.024,428.018L749.671,428.018L729.01,378.22L726.721,366.591L725.669,366.591L725.669,428.018L708.224,428.018L708.224,339.991L734.577,339.991L755.239,389.912L757.528,401.418L758.517,401.418L758.517,339.991L776.024,339.991ZM869.317,428.018L847.419,428.018L842.47,409.769L818.406,409.769L813.457,428.018L794.342,428.018L819.458,339.991L842.593,339.991L869.317,428.018ZM530.917,428.018L530.917,339.991L585.911,339.991L599.83,353.909L599.83,414.1L585.911,428.018L530.917,428.018ZM7.307,415.337L0,422.782L0,408.489L7.307,415.337ZM352.55,407.233L352.55,360.776L347.354,355.579L328.362,355.579L323.166,360.776L323.166,407.233L328.362,412.429L347.354,412.429L352.55,407.233ZM1486.4,407.233L1486.4,360.776L1481.2,355.579L1462.21,355.579L1457.02,360.776L1457.02,407.233L1462.21,412.429L1481.2,412.429L1486.4,407.233ZM574.59,411.811L579.787,406.615L579.787,361.394L574.59,356.198L550.898,356.198L550.898,411.811L574.59,411.811ZM830.098,359.724L828.18,370.117L821.561,394.057L839.439,394.057L832.881,370.117L831.087,359.724L830.098,359.724ZM5.203,351.373L0,356.101L0,346.004L5.203,351.373ZM904.028,299.31L890.048,285.391L890.048,223.964L904.028,209.983L945.537,209.983L959.517,223.964L959.517,285.391L945.537,299.31L904.028,299.31ZM714.905,285.391L714.905,210.664L734.886,210.664L734.886,277.906L740.082,283.103L758.455,283.103L763.651,277.906L763.651,210.664L781.158,210.664L781.158,285.391L767.177,299.31L728.824,299.31L714.905,285.391ZM1474.62,298.691L1474.62,210.664L1502.34,210.664L1517.06,261.946L1519.84,274.504L1520.58,274.504L1523.12,261.946L1537.97,210.664L1565.43,210.664L1565.43,298.691L1545.45,298.691L1545.45,238.254L1544.52,238.254L1542.24,251.306L1527.82,298.691L1510.56,298.691L1495.28,251.306L1492.99,238.254L1492.07,238.254L1492.07,298.691L1474.62,298.691ZM1117.84,298.691L1117.84,210.664L1172.84,210.664L1186.75,224.582L1186.75,284.773L1172.84,298.691L1117.84,298.691ZM820.014,298.691L798.858,298.691L824.839,253.471L801.765,210.664L825.086,210.664L835.603,231.82L837.768,239.553L838.387,239.553L840.675,231.82L850.264,210.664L870.925,210.664L848.037,253.471L872.967,298.691L849.521,298.691L837.892,277.04L834.86,268.442L834.18,268.442L831.273,277.04L820.014,298.691ZM1634,210.664L1634,226.871L1623.1,226.871L1623.1,282.484L1634,282.484L1634,298.691L1590.12,298.691L1590.12,282.484L1603.05,282.484L1603.05,226.871L1590.12,226.871L1590.12,210.664L1634,210.664ZM1362.95,210.664L1362.95,298.691L1336.6,298.691L1315.93,248.894L1313.64,237.264L1312.59,237.264L1312.59,298.691L1295.15,298.691L1295.15,210.664L1321.5,210.664L1342.16,260.585L1344.45,272.091L1345.44,272.091L1345.44,210.664L1362.95,210.664ZM1456.24,298.691L1434.34,298.691L1429.39,280.443L1405.33,280.443L1400.38,298.691L1381.27,298.691L1406.38,210.664L1429.52,210.664L1456.24,298.691ZM1202.6,210.664L1225.49,210.664L1239.59,243.697L1241.82,253.471L1242.5,253.471L1244.91,243.697L1258.95,210.664L1278.07,210.664L1251.47,268.442L1251.47,298.691L1229.32,298.691L1229.32,268.442L1202.6,210.664ZM1054.54,210.664L1054.54,298.691L1028.19,298.691L1007.53,248.894L1005.24,237.264L1004.19,237.264L1004.19,298.691L986.743,298.691L986.743,210.664L1013.1,210.664L1033.76,260.585L1036.05,272.091L1037.04,272.091L1037.04,210.664L1054.54,210.664ZM541.179,295.673L499.67,295.673L485.69,281.754L485.69,220.327L499.67,206.346L540.436,206.346L552.128,218.409L537.9,231.338L529.178,222.616L510.929,222.616L505.732,227.812L505.732,274.269L510.929,279.466L530.291,279.466L540.436,269.444L554.231,282.373L541.179,295.673ZM619.192,230.472L610.965,222.059L592.469,222.059L587.891,226.636L587.891,238.576L592.469,243.091L620.986,243.091L634.905,257.072L634.905,281.754L620.986,295.673L577.375,295.673L565.621,283.672L578.797,271.238L587.643,279.96L610.346,279.96L614.862,275.445L614.862,263.382L610.346,258.804L581.829,258.804L567.91,244.885L567.91,220.327L581.829,206.346L621.729,206.346L632.864,218.038L619.192,230.472ZM189.099,207.027L189.099,295.054L162.747,295.054L142.085,245.257L139.796,233.627L138.745,233.627L138.745,295.054L121.3,295.054L121.3,207.027L147.653,207.027L168.314,256.948L170.603,268.454L171.593,268.454L171.593,207.027L189.099,207.027ZM282.393,295.054L260.494,295.054L255.545,276.806L231.481,276.806L226.533,295.054L207.418,295.054L232.533,207.027L255.669,207.027L282.393,295.054ZM300.773,295.054L300.773,207.027L328.486,207.027L343.209,258.309L345.993,270.867L346.735,270.867L349.272,258.309L364.118,207.027L391.584,207.027L391.584,295.054L371.603,295.054L371.603,234.617L370.676,234.617L368.387,247.669L353.973,295.054L336.714,295.054L321.434,247.669L319.146,234.617L318.218,234.617L318.218,295.054L300.773,295.054ZM462.299,295.054L416.274,295.054L416.274,278.847L429.203,278.847L429.203,223.234L416.274,223.234L416.274,207.027L462.299,207.027L462.299,223.234L449.246,223.234L449.246,278.847L462.299,278.847L462.299,295.054ZM28.749,207.027L51.637,207.027L65.742,240.06L67.969,249.834L68.649,249.834L71.062,240.06L85.104,207.027L104.219,207.027L77.619,264.805L77.619,295.054L55.473,295.054L55.473,264.805L28.749,207.027ZM0,208.04L12.905,220.945L12.905,281.136L0,294.041L0,208.04ZM939.474,277.906L939.474,231.449L934.278,226.253L915.287,226.253L910.091,231.449L910.091,277.906L915.287,283.103L934.278,283.103L939.474,277.906ZM1161.52,282.484L1166.71,277.288L1166.71,232.067L1161.52,226.871L1137.82,226.871L1137.82,282.484L1161.52,282.484ZM1417.02,230.397L1415.1,240.79L1408.49,264.73L1426.36,264.73L1419.81,240.79L1418.01,230.397L1417.02,230.397ZM243.173,226.76L241.255,237.153L234.636,261.093L252.514,261.093L245.957,237.153L244.163,226.76L243.173,226.76ZM72.268,104.782L64.04,96.369L45.544,96.369L40.966,100.947L40.966,112.886L45.544,117.402L74.062,117.402L87.981,131.382L87.981,156.064L74.062,169.983L30.45,169.983L18.697,157.982L31.873,145.548L40.719,154.271L63.422,154.271L67.938,149.755L67.938,137.692L63.422,133.114L34.904,133.114L20.985,119.195L20.985,94.637L34.904,80.656L74.804,80.656L85.939,92.348L72.268,104.782ZM317.104,169.983L303.123,156.064L303.123,94.637L317.104,80.656L358.612,80.656L372.593,94.637L372.593,156.064L358.612,169.983L317.104,169.983ZM1261.83,156.064L1261.83,81.337L1281.81,81.337L1281.81,148.579L1287.01,153.776L1305.38,153.776L1310.58,148.579L1310.58,81.337L1328.08,81.337L1328.08,156.064L1314.1,169.983L1275.75,169.983L1261.83,156.064ZM1206.12,104.782L1197.89,96.369L1179.39,96.369L1174.82,100.947L1174.82,112.886L1179.39,117.402L1207.91,117.402L1221.83,131.382L1221.83,156.064L1207.91,169.983L1164.3,169.983L1152.55,157.982L1165.72,145.548L1174.57,154.271L1197.27,154.271L1201.79,149.755L1201.79,137.692L1197.27,133.114L1168.75,133.114L1154.83,119.195L1154.83,94.637L1168.75,80.656L1208.65,80.656L1219.79,92.348L1206.12,104.782ZM1450.95,169.983L1436.97,156.064L1436.97,94.637L1450.95,80.656L1492.46,80.656L1506.44,94.637L1506.44,156.064L1492.46,169.983L1450.95,169.983ZM1128.1,169.983L1086.6,169.983L1072.61,156.064L1072.61,94.637L1086.6,80.656L1127.36,80.656L1139.05,92.719L1124.82,105.648L1116.1,96.926L1097.85,96.926L1092.66,102.122L1092.66,148.579L1097.85,153.776L1117.22,153.776L1127.36,143.754L1141.16,156.683L1128.1,169.983ZM127.981,156.064L127.981,81.337L147.962,81.337L147.962,148.579L153.158,153.776L171.531,153.776L176.727,148.579L176.727,81.337L194.233,81.337L194.233,156.064L180.253,169.983L141.899,169.983L127.981,156.064ZM887.697,169.365L887.697,81.337L915.411,81.337L930.134,132.619L932.918,145.177L933.66,145.177L936.196,132.619L951.043,81.337L978.509,81.337L978.509,169.365L958.528,169.365L958.528,108.927L957.6,108.927L955.311,121.979L940.898,169.365L923.638,169.365L908.359,121.979L906.07,108.927L905.142,108.927L905.142,169.365L887.697,169.365ZM530.917,169.365L530.917,81.337L585.911,81.337L599.83,95.255L599.83,155.446L585.911,169.365L530.917,169.365ZM776.024,81.337L776.024,169.365L749.671,169.365L729.01,119.567L726.721,107.937L725.669,107.937L725.669,169.365L708.224,169.365L708.224,81.337L734.577,81.337L755.239,131.258L757.528,142.764L758.517,142.764L758.517,81.337L776.024,81.337ZM615.673,81.337L638.562,81.337L652.666,114.37L654.893,124.144L655.574,124.144L657.986,114.37L672.029,81.337L691.143,81.337L664.543,139.115L664.543,169.365L642.397,169.365L642.397,139.115L615.673,81.337ZM1366.94,169.365L1345.78,169.365L1371.76,124.144L1348.69,81.337L1372.01,81.337L1382.53,102.493L1384.69,110.226L1385.31,110.226L1387.6,102.493L1397.19,81.337L1417.85,81.337L1394.96,124.144L1419.89,169.365L1396.45,169.365L1384.82,147.713L1381.79,139.115L1381.1,139.115L1378.2,147.713L1366.94,169.365ZM1049.22,169.365L1003.2,169.365L1003.2,153.157L1016.13,153.157L1016.13,97.544L1003.2,97.544L1003.2,81.337L1049.22,81.337L1049.22,97.544L1036.17,97.544L1036.17,153.157L1049.22,153.157L1049.22,169.365ZM1601.47,81.337L1601.47,169.365L1575.12,169.365L1554.45,119.567L1552.16,107.937L1551.11,107.937L1551.11,169.365L1533.67,169.365L1533.67,81.337L1560.02,81.337L1580.68,131.258L1582.97,142.764L1583.96,142.764L1583.96,81.337L1601.47,81.337ZM233.089,169.365L211.933,169.365L237.915,124.144L214.84,81.337L238.162,81.337L248.678,102.493L250.843,110.226L251.462,110.226L253.751,102.493L263.339,81.337L284.001,81.337L261.112,124.144L286.042,169.365L262.597,169.365L250.967,147.713L247.936,139.115L247.256,139.115L244.348,147.713L233.089,169.365ZM467.618,81.337L467.618,169.365L441.266,169.365L420.604,119.567L418.315,107.937L417.264,107.937L417.264,169.365L399.819,169.365L399.819,81.337L426.172,81.337L446.833,131.258L449.122,142.764L450.112,142.764L450.112,81.337L467.618,81.337ZM869.317,169.365L847.419,169.365L842.47,151.116L818.406,151.116L813.457,169.365L794.342,169.365L819.458,81.337L842.593,81.337L869.317,169.365ZM7.307,156.683L0,164.128L0,149.835L7.307,156.683ZM1486.4,148.579L1486.4,102.122L1481.2,96.926L1462.21,96.926L1457.02,102.122L1457.02,148.579L1462.21,153.776L1481.2,153.776L1486.4,148.579ZM352.55,148.579L352.55,102.122L347.354,96.926L328.362,96.926L323.166,102.122L323.166,148.579L328.362,153.776L347.354,153.776L352.55,148.579ZM574.59,153.157L579.787,147.961L579.787,102.741L574.59,97.544L550.898,97.544L550.898,153.157L574.59,153.157ZM830.098,101.07L828.18,111.463L821.561,135.403L839.439,135.403L832.881,111.463L831.087,101.07L830.098,101.07ZM5.203,92.719L0,97.447L0,87.35L5.203,92.719ZM959.517,-0L959.517,26.738L945.537,40.656L904.028,40.656L890.048,26.738L890.048,-0L910.091,-0L910.091,19.252L915.287,24.449L934.278,24.449L939.474,19.252L939.474,-0L959.517,-0ZM781.158,-0L781.158,26.738L767.177,40.656L728.824,40.656L714.905,26.738L714.905,-0L734.886,-0L734.886,19.252L740.082,24.449L758.455,24.449L763.651,19.252L763.651,-0L781.158,-0ZM1444.09,-0L1456.24,40.038L1434.34,40.038L1429.39,21.789L1405.33,21.789L1400.38,40.038L1381.27,40.038L1392.69,-0L1410.16,-0L1408.49,6.076L1426.36,6.076L1424.7,-0L1444.09,-0ZM1186.75,-0L1186.75,26.119L1172.84,40.038L1117.84,40.038L1117.84,-0L1137.82,-0L1137.82,23.83L1161.52,23.83L1166.71,18.634L1166.71,-0L1186.75,-0ZM850.894,-0L872.967,40.038L849.521,40.038L837.892,18.386L834.86,9.788L834.18,9.788L831.273,18.386L820.014,40.038L798.858,40.038L821.861,-0L850.894,-0ZM1623.1,23.83L1634,23.83L1634,40.038L1590.12,40.038L1590.12,23.83L1603.05,23.83L1603.05,-0L1623.1,-0L1623.1,23.83ZM1255.97,-0L1251.47,9.788L1251.47,40.038L1229.32,40.038L1229.32,9.788L1224.8,-0L1255.97,-0ZM1054.54,-0L1054.54,40.038L1028.19,40.038L1011.58,-0L1032.96,-0L1033.76,1.931L1036.05,13.437L1037.04,13.437L1037.04,-0L1054.54,-0ZM1004.19,-0L1004.19,40.038L986.743,40.038L986.743,-0L1004.19,-0ZM1362.95,-0L1362.95,40.038L1336.6,40.038L1319.98,-0L1341.36,-0L1342.16,1.931L1344.45,13.437L1345.44,13.437L1345.44,-0L1362.95,-0ZM1312.59,-0L1312.59,40.038L1295.15,40.038L1295.15,-0L1312.59,-0ZM1565.43,-0L1565.43,40.038L1545.45,40.038L1545.45,-0L1565.43,-0ZM1540,-0L1527.82,40.038L1510.56,40.038L1497.65,-0L1516.11,-0L1517.06,3.292L1519.84,15.85L1520.58,15.85L1523.12,3.292L1524.07,-0L1540,-0ZM1492.07,-0L1492.07,40.038L1474.62,40.038L1474.62,-0L1492.07,-0ZM634.905,-0L634.905,23.101L620.986,37.019L577.375,37.019L565.621,25.018L578.797,12.584L587.643,21.307L610.346,21.307L614.862,16.791L614.862,4.728L610.346,0.15L581.829,0.15L581.678,-0L634.905,-0ZM505.732,-0L505.732,15.615L510.929,20.812L530.291,20.812L540.436,10.79L554.231,23.719L541.179,37.019L499.67,37.019L485.69,23.101L485.69,-0L505.732,-0ZM138.745,-0L138.745,36.401L121.3,36.401L121.3,-0L138.745,-0ZM189.099,-0L189.099,36.401L162.747,36.401L147.644,-0L168.653,-0L170.603,9.801L171.593,9.801L171.593,-0L189.099,-0ZM449.246,-0L449.246,20.193L462.299,20.193L462.299,36.401L416.274,36.401L416.274,20.193L429.203,20.193L429.203,-0L449.246,-0ZM318.218,-0L318.218,36.401L300.773,36.401L300.773,-0L318.218,-0ZM365.045,-0L353.973,36.401L336.714,36.401L324.976,-0L343.286,-0L345.993,12.213L346.735,12.213L349.202,-0L365.045,-0ZM391.584,-0L391.584,36.401L371.603,36.401L371.603,-0L391.584,-0ZM271.342,-0L282.393,36.401L260.494,36.401L255.545,18.152L231.481,18.152L226.533,36.401L207.418,36.401L217.803,-0L235.311,-0L234.636,2.439L252.514,2.439L251.846,-0L271.342,-0ZM80.451,-0L77.619,6.151L77.619,36.401L55.473,36.401L55.473,6.151L52.628,-0L80.451,-0ZM12.905,22.482L0,35.387L0,-0L12.905,-0L12.905,22.482Z" style="fill:rgb(42,42,42);fill-rule:nonzero;"/>
</svg>
